<svg class="svg-icon" style="width: 1em; height: 1em;vertical-align: middle;fill: currentColor;overflow: hidden;" viewBox="0 0 1024 1024" version="1.1" xmlns="http://www.w3.org/2000/svg"><path d="M512 512m-512 0a512 512 0 1 0 1024 0 512 512 0 1 0-1024 0Z" fill="#CF89AE" /><path d="M416.015 744.196c-4.438-85.765 48.841-162.493 91.021-198.598 6.661-6.778 11.096-11.283 17.754-15.805-8.881-20.309-15.542-42.879-15.542-67.705 0-78.995 62.16-144.433 142.076-144.433 55.499 0 102.125 31.6 126.547 76.725V299.6c0-51.909-42.181-92.529-93.235-92.529H457.847c5.938 16.911 9.145 34.846 9.145 53.429 0 49.305-22.479 94.079-59.07 127.114h23.635c4.579 0 8.106 2.135 9.864 5.669 0.764 1.536 1.186 3.342 1.221 5.347 0.001 0.091 0.012 0.178 0.012 0.27 0 0.093-0.011 0.181-0.012 0.273-0.035 2.004-0.457 3.808-1.22 5.344-1.758 3.534-5.285 5.669-9.864 5.669h-53.782c-34.946 21.597-77.765 34.313-124.027 34.313-18.321 0-36.101-1.996-53.067-5.745V726.15c0 49.65 42.181 90.273 93.235 90.273h173.166c-31.09-11.284-48.847-33.849-51.068-72.227zM287.252 489.173c0-6.759 4.447-11.274 11.111-11.274h133.191c6.66 0 11.098 4.518 11.097 11.274v0.002c0.001 6.772-4.437 11.286-11.097 11.286H298.363c-4.451 0-11.111-4.512-11.111-11.286v-0.002z m88.801 90.284c0 4.651-2.096 8.235-5.569 10.021-0.632 0.324-1.31 0.591-2.027 0.791a12.861 12.861 0 0 1-3.497 0.461h-66.595c-3.94 0-7.095-1.585-9.024-4.271-1.333-1.857-2.086-4.236-2.086-7.002v-0.002c0-2.837 0.788-5.269 2.182-7.146 0.063-0.085 0.119-0.177 0.185-0.259 0.024-0.029 0.052-0.057 0.077-0.087 1.951-2.398 4.964-3.794 8.667-3.794h66.595c6.659 0 11.093 4.507 11.093 11.286v0.002h-0.001z" fill="#FFFFFF" /><path d="M442.651 398.9c0 0.093-0.011 0.181-0.012 0.273 0.003-0.091 0.012-0.179 0.012-0.273zM441.419 393.283c0.764 1.536 1.185 3.342 1.221 5.347-0.036-2.005-0.456-3.811-1.221-5.347zM431.556 410.186h-53.781l-0.001 0.001 53.782-0.001c4.579 0.001 8.106-2.134 9.864-5.668-1.758 3.533-5.286 5.668-9.864 5.668zM370.483 589.479zM287.254 579.457c0 2.766 0.753 5.145 2.086 7.002-1.332-1.857-2.085-4.237-2.086-7.002zM298.365 568.169c-3.703 0-6.716 1.396-8.667 3.794 1.951-2.4 4.965-3.794 8.667-3.794zM370.483 589.479c3.474-1.786 5.569-5.37 5.569-10.021v-0.001c0.001 4.651-2.095 8.235-5.569 10.022zM289.437 572.309c0.063-0.085 0.119-0.177 0.185-0.259-0.067 0.082-0.122 0.174-0.185 0.259zM298.363 477.898h133.191c6.659 0 11.096 4.517 11.097 11.274v-0.001c0.001-6.757-4.437-11.274-11.097-11.274l-133.191 0.001c-6.664-0.001-11.111 4.516-11.111 11.273v0.001c0.001-6.757 4.448-11.274 11.111-11.274zM751.233 572.678c-24.429-22.569-44.41-27.078-51.066-27.078 28.863-15.805 46.616-47.403 46.616-83.505 0-54.162-42.166-97.044-95.46-97.044-53.274 0-95.443 42.882-93.232 97.044 0 36.102 17.768 65.456 46.614 83.505h-11.091c-0.002 0-22.206 0-55.503 27.078-33.301 27.085-73.258 85.758-71.032 153.475 2.209 67.7 73.251 67.7 177.588 67.7 104.341 0 175.386 0 177.601-67.7 2.221-67.717-39.959-124.142-71.035-153.475zM287.252 398.899c0-6.77 6.66-11.284 11.111-11.284h109.555l0.002-0.001H298.363c-4.451 0-11.111 4.513-11.111 11.285z" fill="#FFFFFF" /><path d="M377.771 410.187h-79.408c-4.451 0-11.111-4.516-11.111-11.286 0-6.772 6.66-11.286 11.111-11.286H407.92c36.592-33.035 59.07-77.809 59.07-127.114 0-18.583-3.205-36.519-9.145-53.429H293.913c-51.053 0-93.235 40.622-93.235 92.529v139.155c16.966 3.75 34.746 5.745 53.067 5.745 46.263-0.001 89.081-12.718 124.026-34.314z" fill="#FFFFFF" opacity=".4" /><path d="M298.363 410.186c-4.451 0-11.11-4.515-11.111-11.286 0 6.77 6.66 11.287 11.111 11.286l79.408 0.001 0.002-0.001h-79.41z" fill="#FFFFFF" /></svg>